<!--?xml version="1.0" standalone="no"?-->
              <svg id="sw-js-blob-svg" viewBox="0 0 100 100" xmlns="http://www.w3.org/2000/svg" version="1.1">
                    <defs> 
                        <linearGradient id="sw-gradient" x1="0" x2="1" y1="1" y2="0">
                            <stop id="stop1" stop-color="rgba(0, 0, 0, 1)" offset="0%"></stop>
                            <stop id="stop2" stop-color="rgba(0, 0, 0, 1)" offset="100%"></stop>
                        </linearGradient>
                    </defs>
                <path fill="url(#sw-gradient)" d="M22.7,-29.2C26,-24.4,22.8,-13.9,22.5,-5.5C22.2,3,24.8,9.4,24.1,17C23.4,24.6,19.3,33.3,13.1,35.2C6.9,37.2,-1.6,32.3,-10.6,29.1C-19.6,25.8,-29.3,24.2,-34.6,18.3C-40,12.5,-41,2.5,-38.1,-5.5C-35.3,-13.5,-28.5,-19.7,-21.5,-23.8C-14.4,-28,-7.2,-30.1,1.3,-31.6C9.7,-33.1,19.5,-34,22.7,-29.2Z" width="100%" height="100%" transform="translate(50 50)" stroke-width="0" style="transition: all 0.3s ease 0s;" stroke="url(#sw-gradient)"></path>
              </svg>