<?xml version="1.0" encoding="UTF-8" standalone="no"?>
<!-- Generator: Adobe Illustrator 25.0.0, SVG Export Plug-In . SVG Version: 6.00 Build 0)  -->

<svg
   version="1.1"
   id="Capa_1"
   x="0px"
   y="0px"
   viewBox="0 0 512.021 512.021"
   xml:space="preserve"
   width="512"
   height="512"
   sodipodi:docname="cross (1).svg"
   xmlns:inkscape="http://www.inkscape.org/namespaces/inkscape"
   xmlns:sodipodi="http://sodipodi.sourceforge.net/DTD/sodipodi-0.dtd"
   xmlns="http://www.w3.org/2000/svg"
   xmlns:svg="http://www.w3.org/2000/svg"><defs
   id="defs18654" /><sodipodi:namedview
   id="namedview18652"
   pagecolor="#ffffff"
   bordercolor="#000000"
   borderopacity="0.25"
   inkscape:showpageshadow="2"
   inkscape:pageopacity="0.0"
   inkscape:pagecheckerboard="0"
   inkscape:deskcolor="#d1d1d1"
   showgrid="false" />
<g
   id="g18649"
   style="fill:#ffffff">
	<path
   d="M 301.258,256.01 502.645,54.645 c 12.501,-12.501 12.501,-32.769 0,-45.269 -12.501,-12.501 -32.769,-12.501 -45.269,0 v 0 L 256.01,210.762 54.645,9.376 c -12.501,-12.501 -32.769,-12.501 -45.269,0 -12.5,12.501 -12.501,32.769 0,45.269 L 210.762,256.01 9.376,457.376 c -12.501,12.501 -12.501,32.769 0,45.269 12.501,12.5 32.769,12.501 45.269,0 L 256.01,301.258 457.375,502.645 c 12.501,12.501 32.769,12.501 45.269,0 12.501,-12.501 12.501,-32.769 0,-45.269 z"
   id="path18647"
   style="fill:#ffffff" />
</g>















</svg>
