<?xml version="1.0" standalone="no"?>
<!DOCTYPE svg PUBLIC "-//W3C//DTD SVG 20010904//EN"
 "http://www.w3.org/TR/2001/REC-SVG-20010904/DTD/svg10.dtd">
<svg version="1.0" xmlns="http://www.w3.org/2000/svg"
 width="512.000000pt" height="512.000000pt" viewBox="0 0 512.000000 512.000000"
 preserveAspectRatio="xMidYMid meet">

<g transform="translate(0.000000,512.000000) scale(0.100000,-0.100000)"
fill="#000000" stroke="none">
<path d="M1340 3545 c-591 -344 -1081 -633 -1087 -642 -10 -13 -13 -85 -13
-278 0 -238 2 -263 18 -278 30 -28 346 -207 364 -207 26 0 52 44 40 67 -6 10
-80 59 -166 108 l-156 89 0 194 c0 106 3 191 8 189 4 -2 521 -300 1150 -662
l1142 -659 0 -194 c0 -106 -3 -191 -7 -189 -5 2 -348 200 -764 440 -416 240
-768 442 -783 448 -23 11 -30 10 -48 -8 -47 -47 -62 -37 811 -540 450 -260
827 -473 836 -473 10 0 149 77 310 170 160 94 296 170 302 170 5 0 115 -61
244 -135 128 -74 238 -135 244 -135 11 0 78 38 580 330 193 111 358 210 368
218 16 14 17 37 15 293 l-3 277 49 27 c92 52 86 30 86 329 l0 265 -32 24 c-65
49 -2384 1381 -2408 1384 -18 2 -325 -172 -1100 -622z m2298 -170 c815 -471
1088 -633 1079 -641 -7 -6 -120 -73 -252 -149 -302 -174 -297 -171 -293 -203
3 -28 14 -35 286 -192 117 -67 141 -85 130 -95 -14 -13 -767 -452 -792 -461
-8 -3 -119 55 -251 131 -137 79 -244 135 -254 132 -10 -2 -148 -80 -307 -172
-159 -93 -293 -168 -299 -168 -5 0 -215 118 -465 263 -882 510 -1208 698
-1517 876 -284 163 -310 180 -293 192 11 8 471 276 1022 597 l1003 583 56 -32
c31 -17 547 -314 1147 -661z m1140 -917 l-3 -192 -63 -37 -64 -36 -158 91
c-87 50 -159 95 -161 99 -4 8 425 265 444 266 4 1 6 -85 5 -191z m-118 -631
l0 -194 -398 -231 c-220 -127 -406 -234 -416 -238 -15 -6 -16 9 -14 186 l3
192 250 145 c138 80 322 187 410 239 88 51 161 93 163 94 1 0 2 -87 2 -193z
m-1412 -258 l-3 -192 -205 -119 c-113 -66 -229 -133 -257 -149 l-53 -30 0 193
0 194 253 146 c138 81 255 147 260 148 4 0 6 -86 5 -191z m307 79 l180 -104 3
-192 c1 -106 -1 -192 -4 -192 -4 0 -92 48 -195 108 l-189 107 0 194 c0 151 3
192 13 188 6 -3 93 -52 192 -109z"/>
<path d="M1561 3416 c-475 -276 -868 -510 -873 -520 -7 -12 -5 -23 4 -38 15
-22 883 -528 906 -528 8 0 267 147 575 326 309 180 698 406 865 503 173 100
304 183 308 193 14 45 35 32 -730 471 -94 53 -175 97 -181 96 -5 0 -399 -226
-874 -503z m1261 177 c208 -120 378 -220 378 -223 0 -6 -1577 -924 -1596 -928
-7 -2 -184 96 -394 216 l-381 220 233 135 c128 75 489 284 802 466 314 182
572 331 575 331 2 0 175 -98 383 -217z"/>
<path d="M3130 3070 c-206 -121 -381 -228 -388 -239 -10 -14 -11 -25 -3 -39 5
-10 211 -135 456 -277 422 -244 448 -257 473 -246 15 7 191 108 391 224 243
142 367 220 374 235 9 19 7 27 -14 46 -33 32 -876 516 -897 515 -9 0 -186 -99
-392 -219z m790 -111 c325 -188 368 -216 353 -227 -57 -42 -625 -363 -636
-359 -43 17 -742 430 -742 438 0 15 618 370 637 365 10 -2 184 -100 388 -217z"/>
<path d="M2175 2514 c-203 -119 -378 -223 -387 -231 -10 -9 -18 -24 -18 -33 0
-9 8 -24 18 -32 36 -32 878 -513 897 -513 17 0 179 92 691 391 97 57 114 80
86 114 -10 10 -199 125 -422 253 -446 257 -463 267 -482 267 -7 0 -179 -98
-383 -216z m774 -111 c207 -119 377 -217 379 -218 4 -3 -634 -375 -643 -375
-9 0 -738 421 -752 434 -9 8 66 56 300 193 172 100 318 182 326 182 8 1 184
-96 390 -216z"/>
<path d="M3969 2296 c-65 -34 -466 -270 -481 -284 -27 -23 -22 -48 15 -75 57
-43 263 -157 282 -157 18 0 473 258 508 288 33 29 21 59 -35 95 -60 38 -252
147 -259 147 -2 0 -16 -6 -30 -14z m113 -142 c64 -38 77 -49 66 -59 -9 -9
-307 -183 -358 -211 -3 -1 -43 19 -89 46 -84 48 -84 48 -60 63 37 24 353 207
358 207 2 0 40 -21 83 -46z"/>
<path d="M752 2128 c-7 -7 -12 -24 -12 -39 0 -23 10 -33 64 -63 73 -41 101
-45 116 -17 19 36 10 51 -52 91 -65 41 -95 49 -116 28z"/>
</g>
</svg>
