<svg id="visual" viewBox="0 0 900 675" width="900" height="675" xmlns="http://www.w3.org/2000/svg" xmlns:xlink="http://www.w3.org/1999/xlink" version="1.1"><rect x="0" y="0" width="900" height="675" fill="#080808"></rect><path d="M0 461L129 525L257 489L386 530L514 515L643 483L771 476L900 502L900 676L771 676L643 676L514 676L386 676L257 676L129 676L0 676Z" fill="#431a80"></path><path d="M0 489L129 513L257 517L386 539L514 529L643 530L771 506L900 552L900 676L771 676L643 676L514 676L386 676L257 676L129 676L0 676Z" fill="#3b1b69"></path><path d="M0 556L129 577L257 582L386 570L514 572L643 522L771 569L900 541L900 676L771 676L643 676L514 676L386 676L257 676L129 676L0 676Z" fill="#331b54"></path><path d="M0 603L129 558L257 596L386 585L514 559L643 568L771 585L900 572L900 676L771 676L643 676L514 676L386 676L257 676L129 676L0 676Z" fill="#2b1b3f"></path><path d="M0 624L129 619L257 589L386 606L514 597L643 604L771 605L900 590L900 676L771 676L643 676L514 676L386 676L257 676L129 676L0 676Z" fill="#21192a"></path><path d="M0 638L129 644L257 632L386 643L514 631L643 652L771 649L900 626L900 676L771 676L643 676L514 676L386 676L257 676L129 676L0 676Z" fill="#171717"></path></svg>