<?xml version="1.0" encoding="UTF-8" standalone="no"?>
<svg
   id="visual"
   viewBox="0 0 2560 675"
   width="2560"
   height="675"
   version="1.1"
   sodipodi:docname="landing-waves.svg"
   inkscape:export-filename="landing-waves.png"
   inkscape:export-xdpi="96"
   inkscape:export-ydpi="96"
   inkscape:version="1.2.2 (732a01da63, 2022-12-09)"
   xmlns:inkscape="http://www.inkscape.org/namespaces/inkscape"
   xmlns:sodipodi="http://sodipodi.sourceforge.net/DTD/sodipodi-0.dtd"
   xmlns="http://www.w3.org/2000/svg"
   xmlns:svg="http://www.w3.org/2000/svg">
  <defs
     id="defs591" />
  <sodipodi:namedview
     id="namedview589"
     pagecolor="#ffffff"
     bordercolor="#000000"
     borderopacity="0.25"
     inkscape:showpageshadow="2"
     inkscape:pageopacity="0.0"
     inkscape:pagecheckerboard="0"
     inkscape:deskcolor="#d1d1d1"
     showgrid="false"
     inkscape:zoom="0.33421844"
     inkscape:cx="1110.0525"
     inkscape:cy="519.12157"
     inkscape:window-width="1632"
     inkscape:window-height="1230"
     inkscape:window-x="2770"
     inkscape:window-y="138"
     inkscape:window-maximized="0"
     inkscape:current-layer="visual" />
  <path
     d="m 0.64462814,459.5124 129.00000186,64 128,-36 129,41 128,-15 129,-32 128,-7 129,26 v 174 h -129 -128 -129 -128 -129 -128 H 0.64462814 Z"
     fill="#431a80"
     id="path3407" />
  <path
     d="m 0.64462814,487.5124 129.00000186,24 128,4 129,22 128,-10 129,1 128,-24 129,46 v 124 h -129 -128 -129 -128 -129 -128 H 0.64462814 Z"
     fill="#3b1b69"
     id="path3409" />
  <path
     d="m 0.64462814,554.5124 129.00000186,21 128,5 129,-12 128,2 129,-50 128,47 129,-28 v 135 h -129 -128 -129 -128 -129 -128 H 0.64462814 Z"
     fill="#331b54"
     id="path3411" />
  <path
     d="m 0.64462814,601.5124 129.00000186,-45 128,38 129,-11 128,-26 129,9 128,17 129,-13 v 104 h -129 -128 -129 -128 -129 -128 H 0.64462814 Z"
     fill="#2b1b3f"
     id="path3413" />
  <path
     d="m 0.64462814,622.5124 129.00000186,-5 128,-30 129,17 128,-9 129,7 128,1 129,-15 v 86 h -129 -128 -129 -128 -129 -128 H 0.64462814 Z"
     fill="#21192a"
     id="path3415" />
  <path
     d="m 0.64462814,636.5124 129.00000186,6 128,-12 129,11 128,-12 129,21 128,-3 129,-23 v 50 h -129 -128 -129 -128 -129 -128 H 0.64462814 Z"
     fill="#171717"
     id="path3417" />
  <path
     d="m 1795.1855,459.75113 -129,64 -128,-36 -129,41 -128,-15 -129,-32 -128,-7 -129.00005,26 v 174 h 129.00005 128 129 128 129 128 129 z"
     fill="#431a80"
     id="path3407-8" />
  <path
     d="m 1795.1855,487.75113 -129,24 -128,4 -129,22 -128,-10 -129,1 -128,-24 -129.00005,46 v 124 h 129.00005 128 129 128 129 128 129 z"
     fill="#3b1b69"
     id="path3409-3" />
  <path
     d="m 1795.1855,554.75116 -129,21 -128,5 -129,-12 -128,2 -129,-50 -128,47 -129.00005,-28 v 135 h 129.00005 128 129 128 129 128 129 z"
     fill="#331b54"
     id="path3411-6" />
  <path
     d="m 1795.1855,601.75116 -129,-45 -128,38 -129,-11 -128,-26 -129,9 -128,17 -129.00005,-13 v 104 h 129.00005 128 129 128 129 128 129 z"
     fill="#2b1b3f"
     id="path3413-2" />
  <path
     d="m 1795.1855,622.75116 -129,-5 -128,-30 -129,17 -128,-9 -129,7 -128,1 -129.00005,-15 v 86 h 129.00005 128 129 128 129 128 129 z"
     fill="#21192a"
     id="path3415-3" />
  <path
     d="m 1795.1855,636.75116 -129,6 -128,-12 -129,11 -128,-12 -129,21 -128,-3 -129.00005,-23 v 50 h 129.00005 128 129 128 129 128 129 z"
     fill="#171717"
     id="path3417-8" />
  <path
     d="m 1795.1074,459.50825 129,64 128,-36 129,41 128,-15 129,-32 128,-7 129.0001,26 v 174.00001 h -129.0001 -128 -129 -128 -129 -128 -129 z"
     fill="#431a80"
     id="path3407-8-5" />
  <path
     d="m 1795.1074,487.50825 129,24 128,4 129,22 128,-10 129,1 128,-24 129.0001,46 v 124.00001 h -129.0001 -128 -129 -128 -129 -128 -129 z"
     fill="#3b1b69"
     id="path3409-3-7" />
  <path
     d="m 1795.1074,554.50828 129,21 128,5 129,-12 128,2 129,-50 128,47 129.0001,-28 v 134.99998 h -129.0001 -128 -129 -128 -129 -128 -129 z"
     fill="#331b54"
     id="path3411-6-6" />
  <path
     d="m 1795.1074,601.50828 129,-45 128,38 129,-11 128,-26 129,9 128,17 129.0001,-13 v 103.99998 h -129.0001 -128 -129 -128 -129 -128 -129 z"
     fill="#2b1b3f"
     id="path3413-2-8" />
  <path
     d="m 1795.1074,622.50828 129,-5 128,-30 129,17 128,-9 129,7 128,1 129.0001,-15 v 85.99998 h -129.0001 -128 -129 -128 -129 -128 -129 z"
     fill="#21192a"
     id="path3415-3-8" />
  <path
     d="m 1795.1074,636.50826 129,6 128,-12 129,11 128,-12 129,21 128,-3 129.0001,-22.99998 v 49.99998 h -129.0001 -128 -129 -128 -129 -128 -129 z"
     fill="#171717"
     id="path3417-8-8" />
</svg>
