<?xml version="1.0" standalone="no"?>
<!DOCTYPE svg PUBLIC "-//W3C//DTD SVG 20010904//EN"
 "http://www.w3.org/TR/2001/REC-SVG-20010904/DTD/svg10.dtd">
<svg class="panels" version="1.0" xmlns="http://www.w3.org/2000/svg"
 width="512.000000pt" height="512.000000pt" viewBox="0 0 512.000000 512.000000"
 preserveAspectRatio="xMidYMid meet">

<g transform="translate(0.000000,512.000000) scale(0.100000,-0.100000)"
fill="#000000" stroke="none">
<path d="M185 4475 l-25 -24 0 -1891 0 -1891 25 -24 24 -25 2351 0 2351 0 24
25 25 24 0 1118 c0 1103 -1 1119 -21 1163 -53 117 -180 176 -289 135 -149 -56
-203 -55 -305 6 -99 60 -138 72 -242 73 l-93 1 -116 -60 c-101 -52 -122 -60
-172 -60 -39 0 -75 8 -112 25 -43 19 -71 24 -127 24 l-73 -1 0 377 0 376 -25
51 c-61 121 -195 163 -330 102 -62 -28 -154 -30 -205 -6 -19 9 -62 32 -94 51
-127 74 -272 70 -413 -10 -122 -70 -198 -78 -288 -31 -30 16 -58 21 -112 21
l-73 0 0 209 0 209 -29 29 -29 29 -802 0 -801 0 -24 -25z m1525 -520 l0 -385
-695 0 -695 0 0 385 0 385 695 0 695 0 0 -385z m1014 -75 c143 -77 265 -87
392 -31 60 27 80 26 109 -4 24 -23 25 -30 25 -150 l0 -125 -690 0 -690 0 0
125 c0 120 1 127 25 150 29 30 49 31 109 4 124 -55 250 -46 385 28 107 58 125
63 190 57 38 -3 78 -18 145 -54z m-1014 -855 l0 -385 -695 0 -695 0 0 385 0
385 695 0 695 0 0 -385z m1540 0 l0 -385 -178 0 c-163 0 -180 -2 -199 -20 -29
-27 -37 -56 -23 -89 18 -45 46 -51 230 -51 l170 0 0 -385 0 -385 -690 0 -690
0 0 385 0 385 320 0 321 0 24 25 c16 15 25 36 25 55 0 19 -9 40 -25 55 l-24
25 -321 0 -320 0 0 385 0 385 690 0 690 0 0 -385z m1010 -69 c102 -59 141 -71
240 -70 68 1 97 6 147 28 78 33 94 33 127 0 25 -26 26 -30 26 -150 l0 -124
-695 0 -695 0 0 113 c0 123 9 152 52 177 23 12 32 13 60 1 92 -37 119 -43 193
-44 91 -1 156 17 231 65 113 72 194 73 314 4z m-2550 -861 l0 -385 -695 0
-695 0 0 385 0 385 695 0 695 0 0 -385z m3090 0 l0 -385 -196 0 -196 0 -29
-29 c-16 -16 -29 -39 -29 -51 0 -12 13 -35 29 -51 l29 -29 196 0 196 0 0 -385
0 -385 -695 0 -695 0 0 385 0 385 319 0 320 0 27 23 c20 17 27 33 27 57 0 24
-7 40 -27 57 l-27 23 -320 0 -319 0 0 385 0 385 695 0 695 0 0 -385z m-3090
-930 l0 -385 -695 0 -695 0 0 385 0 385 695 0 695 0 0 -385z m1540 0 l0 -385
-690 0 -690 0 0 385 0 385 690 0 690 0 0 -385z"/>
</g>
</svg>
