<?xml version="1.0" standalone="no"?>
<!DOCTYPE svg PUBLIC "-//W3C//DTD SVG 20010904//EN"
 "http://www.w3.org/TR/2001/REC-SVG-20010904/DTD/svg10.dtd">
<svg version="1.0" xmlns="http://www.w3.org/2000/svg"
 width="512.000000pt" height="512.000000pt" viewBox="0 0 512.000000 512.000000"
 preserveAspectRatio="xMidYMid meet">

<g transform="translate(0.000000,512.000000) scale(0.100000,-0.100000)"
fill="#000000" stroke="none">
<path d="M25 5095 l-25 -24 0 -653 c1 -517 3 -657 14 -670 7 -9 351 -213 766
-452 l753 -435 2 -54 c8 -181 206 -281 358 -181 21 14 55 51 75 83 l37 59 377
-217 c207 -120 407 -240 445 -266 113 -80 269 -245 359 -380 75 -114 81 -120
116 -123 45 -4 78 24 78 66 0 63 -151 272 -299 415 -137 132 -185 164 -616
412 -198 114 -365 213 -372 219 -9 8 17 60 106 213 64 111 120 205 123 208 15
15 69 -30 126 -103 110 -142 157 -172 318 -197 142 -23 172 -39 214 -113 104
-184 137 -218 257 -267 197 -81 195 -78 237 -232 45 -159 69 -196 202 -296 34
-26 74 -60 88 -78 26 -30 26 -34 25 -174 0 -78 5 -161 11 -184 6 -22 42 -88
81 -144 39 -58 72 -119 75 -138 4 -24 -5 -66 -31 -144 -42 -127 -41 -175 5
-249 40 -63 103 -97 191 -104 l69 -5 0 -133 0 -134 -700 0 -701 0 3 146 3 146
55 18 c30 9 106 40 168 69 61 28 142 59 180 68 94 23 284 23 384 0 83 -19 108
-15 128 23 30 56 -6 104 -90 122 l-57 11 -7 73 c-8 103 -43 254 -62 276 -23
24 -78 24 -104 -2 -24 -24 -25 -57 -6 -142 8 -35 18 -90 22 -124 l6 -60 -113
-12 c-132 -13 -211 -35 -358 -102 -160 -73 -151 -73 -151 -2 0 44 -5 66 -19
83 -19 24 -22 24 -211 24 -189 0 -192 0 -211 -24 -14 -17 -19 -39 -19 -83 0
-71 9 -71 -151 2 -207 94 -363 122 -554 101 -129 -15 -176 -28 -332 -97 -153
-68 -199 -82 -290 -91 l-73 -6 0 72 c0 67 -2 75 -29 102 l-29 29 -175 0 c-161
0 -176 -2 -201 -21 -14 -11 -26 -30 -26 -41 0 -15 -4 -18 -17 -13 -107 41
-144 49 -225 49 -80 1 -89 -1 -129 -29 -27 -19 -54 -50 -71 -84 l-28 -53 0
-427 c0 -277 4 -440 11 -466 14 -51 93 -130 146 -144 59 -17 4752 -15 4807 1
54 16 128 90 144 144 9 30 12 161 12 467 l0 425 -28 53 c-17 34 -44 65 -71 84
-40 28 -49 30 -129 29 -81 0 -118 -8 -224 -49 -14 -5 -18 -2 -18 13 0 11 -12
30 -26 41 -25 19 -40 21 -201 21 l-175 0 -29 -29 c-27 -27 -29 -35 -29 -100
l0 -71 -40 0 c-51 0 -85 16 -99 47 -10 21 -5 43 25 136 53 165 44 224 -61 372
-75 107 -77 112 -76 262 1 74 -3 152 -9 172 -17 65 -66 124 -159 195 -50 38
-100 83 -110 100 -10 17 -31 75 -45 128 -14 54 -34 115 -45 137 -35 67 -102
116 -223 163 -64 24 -122 53 -137 69 -14 14 -46 62 -70 105 -92 166 -141 200
-327 233 -61 10 -125 26 -142 35 -17 9 -65 59 -107 111 -43 54 -95 107 -120
123 l-44 27 65 115 c70 125 80 157 70 224 -11 71 -54 125 -143 179 -141 85
-175 87 -219 12 -14 -25 -28 -45 -31 -45 -2 0 -163 92 -356 204 -608 351 -681
393 -703 400 -55 17 -111 -52 -83 -103 10 -18 170 -115 542 -330 l527 -304
-38 -69 c-26 -47 -41 -66 -52 -63 -8 3 -251 143 -540 310 -289 167 -696 402
-905 523 l-380 219 -3 92 c-1 50 -1 91 2 91 3 0 134 -75 293 -167 184 -106
298 -166 316 -166 60 0 94 81 51 122 -35 34 -718 421 -742 421 -12 0 -34 -11
-47 -25z m1010 -1049 c473 -274 864 -501 869 -506 8 -8 -292 -540 -305 -540
-4 0 -290 163 -635 363 -346 200 -671 387 -721 416 l-93 53 0 360 c0 284 3
359 13 355 6 -2 399 -228 872 -501z m1295 -211 c41 -26 60 -52 60 -80 0 -10
-127 -238 -282 -507 -251 -434 -287 -492 -316 -505 -27 -11 -38 -11 -60 -1
-34 17 -56 61 -45 92 13 37 587 1026 596 1026 4 0 25 -11 47 -25z m-1552
-3217 l2 -468 -80 0 -80 0 0 470 0 471 78 -3 77 -3 3 -467z m1150 447 c34 -8
113 -38 175 -66 61 -29 137 -60 167 -69 l55 -18 3 -145 3 -146 -295 -3 c-273
-3 -295 -4 -315 -22 -14 -13 -21 -31 -21 -57 0 -51 27 -69 102 -69 l58 0 0
-160 0 -160 -235 0 -236 0 3 158 3 157 30 3 c44 5 65 29 65 72 0 25 -7 43 -21
56 -19 17 -42 19 -280 22 l-259 3 0 133 0 133 78 7 c107 9 203 37 345 102 112
51 190 76 277 87 59 8 232 -2 298 -18z m712 -445 l0 -470 -80 0 -80 0 0 470 0
470 80 0 80 0 0 -470z m1860 0 l0 -470 -80 0 -80 0 0 463 c0 255 3 467 7 470
3 4 39 7 80 7 l73 0 0 -470z m-4179 431 c30 -10 75 -29 102 -40 l47 -22 0
-184 0 -185 -160 0 -160 0 0 203 c0 191 1 205 20 225 26 28 77 29 151 3z
m4629 -3 c19 -20 20 -34 20 -225 l0 -203 -160 0 -160 0 0 185 0 185 38 16
c155 69 226 80 262 42z m-4482 -740 l3 -158 -136 0 c-131 0 -137 1 -160 25
-24 23 -25 29 -25 160 l0 136 158 -3 157 -3 3 -157z m772 2 l0 -160 -155 0
-155 0 0 160 0 160 155 0 155 0 0 -160z m1090 0 l0 -160 -160 0 -160 0 0 153
c0 85 3 157 7 160 3 4 75 7 160 7 l153 0 0 -160z m778 -2 l3 -158 -161 0 -160
0 0 160 0 161 158 -3 157 -3 3 -157z m620 0 l3 -158 -236 0 -235 0 0 160 0
160 233 -2 232 -3 3 -157z m462 2 l0 -160 -155 0 -155 0 0 160 0 160 155 0
155 0 0 -160z m780 25 c0 -131 -1 -137 -25 -160 -23 -24 -29 -25 -160 -25
l-135 0 0 153 c0 85 3 157 7 160 3 4 75 7 160 7 l153 0 0 -135z"/>
<path d="M1732 897 c-30 -31 -28 -72 4 -104 20 -20 31 -24 57 -19 40 8 55 23
63 63 13 67 -77 110 -124 60z"/>
<path d="M2741 3464 c-39 -50 -16 -108 46 -120 26 -5 37 -1 57 19 31 31 33 65
5 101 -15 19 -30 26 -54 26 -24 0 -39 -7 -54 -26z"/>
<path d="M3286 3387 c-33 -33 -34 -76 -3 -105 31 -30 72 -28 104 4 20 20 24
31 19 57 -4 17 -12 37 -19 44 -7 7 -27 15 -44 19 -26 5 -37 1 -57 -19z"/>
<path d="M3595 2905 c-28 -27 -30 -42 -14 -78 11 -25 47 -47 75 -47 25 0 64
47 64 78 0 36 -37 72 -74 72 -15 0 -37 -10 -51 -25z"/>
<path d="M3437 902 c-23 -25 -22 -85 1 -105 26 -24 85 -22 107 3 43 48 10 120
-55 120 -23 0 -43 -7 -53 -18z"/>
</g>
</svg>
