<svg id="visual" viewBox="0 0 1280 750" width="1280" height="750" xmlns="http://www.w3.org/2000/svg" xmlns:xlink="http://www.w3.org/1999/xlink" version="1.1"><g stroke-width="1" stroke-linejoin="bevel"><path d="M618 397L551 289L551 375Z" fill="#4c4a4e" stroke="#4c4a4e"></path><path d="M618 397L675 212L551 289Z" fill="#3a3344" stroke="#3a3344"></path><path d="M618 397L765 265L675 212Z" fill="#525252" stroke="#525252"></path><path d="M618 397L769 407L765 265Z" fill="#46424b" stroke="#46424b"></path><path d="M759 104L607 144L675 212Z" fill="#342b40" stroke="#342b40"></path><path d="M675 212L607 144L551 289Z" fill="#342b40" stroke="#342b40"></path><path d="M540 523L635 519L618 397Z" fill="#221635" stroke="#221635"></path><path d="M618 397L635 519L769 407Z" fill="#17042d" stroke="#17042d"></path><path d="M395 520L540 523L551 375Z" fill="#525252" stroke="#525252"></path><path d="M551 375L540 523L618 397Z" fill="#46424b" stroke="#46424b"></path><path d="M344 281L393 342L551 289Z" fill="#342b40" stroke="#342b40"></path><path d="M551 289L393 342L551 375Z" fill="#342b40" stroke="#342b40"></path><path d="M635 519L786 467L769 407Z" fill="#281d38" stroke="#281d38"></path><path d="M921 359L858 222L765 265Z" fill="#1c0f31" stroke="#1c0f31"></path><path d="M615 0L545 88L607 144Z" fill="#1c0f31" stroke="#1c0f31"></path><path d="M607 144L545 88L551 289Z" fill="#281d38" stroke="#281d38"></path><path d="M369 116L344 281L551 289Z" fill="#342b40" stroke="#342b40"></path><path d="M858 222L759 104L765 265Z" fill="#525252" stroke="#525252"></path><path d="M765 265L759 104L675 212Z" fill="#2e243c" stroke="#2e243c"></path><path d="M921 359L765 265L769 407Z" fill="#221635" stroke="#221635"></path><path d="M393 342L395 520L551 375Z" fill="#342b40" stroke="#342b40"></path><path d="M276 465L395 520L393 342Z" fill="#403a47" stroke="#403a47"></path><path d="M768 632L859 489L786 467Z" fill="#221635" stroke="#221635"></path><path d="M786 467L859 489L769 407Z" fill="#1c0f31" stroke="#1c0f31"></path><path d="M540 523L664 631L635 519Z" fill="#3a3344" stroke="#3a3344"></path><path d="M635 519L768 632L786 467Z" fill="#17042d" stroke="#17042d"></path><path d="M484 648L664 631L540 523Z" fill="#342b40" stroke="#342b40"></path><path d="M545 88L369 116L551 289Z" fill="#221635" stroke="#221635"></path><path d="M859 489L921 359L769 407Z" fill="#1c0f31" stroke="#1c0f31"></path><path d="M369 116L292 237L344 281Z" fill="#4c4a4e" stroke="#4c4a4e"></path><path d="M225 397L276 465L393 342Z" fill="#221635" stroke="#221635"></path><path d="M759 104L615 0L607 144Z" fill="#525252" stroke="#525252"></path><path d="M545 88L420 0L369 116Z" fill="#4c4a4e" stroke="#4c4a4e"></path><path d="M395 520L484 648L540 523Z" fill="#281d38" stroke="#281d38"></path><path d="M615 0L525 0L545 88Z" fill="#17042d" stroke="#17042d"></path><path d="M664 631L768 632L635 519Z" fill="#2e243c" stroke="#2e243c"></path><path d="M737 750L768 632L664 631Z" fill="#1c0f31" stroke="#1c0f31"></path><path d="M225 397L393 342L344 281Z" fill="#221635" stroke="#221635"></path><path d="M395 520L361 603L484 648Z" fill="#2e243c" stroke="#2e243c"></path><path d="M276 465L361 603L395 520Z" fill="#4c4a4e" stroke="#4c4a4e"></path><path d="M858 222L888 102L759 104Z" fill="#4c4a4e" stroke="#4c4a4e"></path><path d="M759 104L761 0L615 0Z" fill="#281d38" stroke="#281d38"></path><path d="M997 152L888 102L858 222Z" fill="#281d38" stroke="#281d38"></path><path d="M888 102L761 0L759 104Z" fill="#525252" stroke="#525252"></path><path d="M525 0L420 0L545 88Z" fill="#342b40" stroke="#342b40"></path><path d="M369 116L240 96L292 237Z" fill="#342b40" stroke="#342b40"></path><path d="M292 237L225 397L344 281Z" fill="#2e243c" stroke="#2e243c"></path><path d="M276 465L285 663L361 603Z" fill="#3a3344" stroke="#3a3344"></path><path d="M859 489L992 377L921 359Z" fill="#4c4a4e" stroke="#4c4a4e"></path><path d="M1061 248L997 152L858 222Z" fill="#46424b" stroke="#46424b"></path><path d="M1026 539L992 377L859 489Z" fill="#3a3344" stroke="#3a3344"></path><path d="M502 750L618 750L484 648Z" fill="#17042d" stroke="#17042d"></path><path d="M484 648L618 750L664 631Z" fill="#221635" stroke="#221635"></path><path d="M390 750L502 750L484 648Z" fill="#525252" stroke="#525252"></path><path d="M246 0L240 96L369 116Z" fill="#3a3344" stroke="#3a3344"></path><path d="M292 237L138 226L225 397Z" fill="#342b40" stroke="#342b40"></path><path d="M1061 248L858 222L921 359Z" fill="#221635" stroke="#221635"></path><path d="M888 102L921 0L761 0Z" fill="#2e243c" stroke="#2e243c"></path><path d="M618 750L737 750L664 631Z" fill="#3a3344" stroke="#3a3344"></path><path d="M768 632L908 652L859 489Z" fill="#4c4a4e" stroke="#4c4a4e"></path><path d="M876 750L908 652L768 632Z" fill="#46424b" stroke="#46424b"></path><path d="M112 621L285 663L276 465Z" fill="#3a3344" stroke="#3a3344"></path><path d="M361 603L390 750L484 648Z" fill="#342b40" stroke="#342b40"></path><path d="M997 152L921 0L888 102Z" fill="#221635" stroke="#221635"></path><path d="M1124 252L1061 248L1163 395Z" fill="#4c4a4e" stroke="#4c4a4e"></path><path d="M992 377L1061 248L921 359Z" fill="#221635" stroke="#221635"></path><path d="M997 152L1026 0L921 0Z" fill="#1c0f31" stroke="#1c0f31"></path><path d="M285 663L390 750L361 603Z" fill="#342b40" stroke="#342b40"></path><path d="M908 652L1026 539L859 489Z" fill="#221635" stroke="#221635"></path><path d="M240 96L138 226L292 237Z" fill="#525252" stroke="#525252"></path><path d="M225 397L113 474L276 465Z" fill="#281d38" stroke="#281d38"></path><path d="M420 0L246 0L369 116Z" fill="#2e243c" stroke="#2e243c"></path><path d="M240 96L163 85L138 226Z" fill="#525252" stroke="#525252"></path><path d="M737 750L876 750L768 632Z" fill="#17042d" stroke="#17042d"></path><path d="M908 652L1017 631L1026 539Z" fill="#17042d" stroke="#17042d"></path><path d="M246 0L163 85L240 96Z" fill="#3a3344" stroke="#3a3344"></path><path d="M0 337L94 348L0 234Z" fill="#3a3344" stroke="#3a3344"></path><path d="M138 226L94 348L225 397Z" fill="#46424b" stroke="#46424b"></path><path d="M94 348L113 474L225 397Z" fill="#3a3344" stroke="#3a3344"></path><path d="M1035 750L1017 631L908 652Z" fill="#403a47" stroke="#403a47"></path><path d="M1163 395L1061 248L992 377Z" fill="#4c4a4e" stroke="#4c4a4e"></path><path d="M1140 466L992 377L1026 539Z" fill="#2e243c" stroke="#2e243c"></path><path d="M1061 248L1189 125L997 152Z" fill="#46424b" stroke="#46424b"></path><path d="M1141 0L1026 0L997 152Z" fill="#403a47" stroke="#403a47"></path><path d="M149 750L257 750L285 663Z" fill="#281d38" stroke="#281d38"></path><path d="M285 663L257 750L390 750Z" fill="#17042d" stroke="#17042d"></path><path d="M1191 586L1140 466L1026 539Z" fill="#4c4a4e" stroke="#4c4a4e"></path><path d="M1140 466L1163 395L992 377Z" fill="#281d38" stroke="#281d38"></path><path d="M0 520L112 621L113 474Z" fill="#17042d" stroke="#17042d"></path><path d="M113 474L112 621L276 465Z" fill="#4c4a4e" stroke="#4c4a4e"></path><path d="M246 0L108 0L163 85Z" fill="#3a3344" stroke="#3a3344"></path><path d="M0 126L0 234L138 226Z" fill="#4c4a4e" stroke="#4c4a4e"></path><path d="M876 750L1035 750L908 652Z" fill="#3a3344" stroke="#3a3344"></path><path d="M1017 631L1191 586L1026 539Z" fill="#4c4a4e" stroke="#4c4a4e"></path><path d="M0 234L94 348L138 226Z" fill="#4c4a4e" stroke="#4c4a4e"></path><path d="M94 348L0 337L113 474Z" fill="#221635" stroke="#221635"></path><path d="M0 126L138 226L163 85Z" fill="#403a47" stroke="#403a47"></path><path d="M112 621L149 750L285 663Z" fill="#1c0f31" stroke="#1c0f31"></path><path d="M0 750L149 750L112 621Z" fill="#221635" stroke="#221635"></path><path d="M1124 252L1189 125L1061 248Z" fill="#17042d" stroke="#17042d"></path><path d="M1280 212L1189 125L1124 252Z" fill="#4c4a4e" stroke="#4c4a4e"></path><path d="M0 337L0 520L113 474Z" fill="#281d38" stroke="#281d38"></path><path d="M1189 125L1141 0L997 152Z" fill="#4c4a4e" stroke="#4c4a4e"></path><path d="M108 0L0 126L163 85Z" fill="#2e243c" stroke="#2e243c"></path><path d="M1132 750L1191 586L1017 631Z" fill="#3a3344" stroke="#3a3344"></path><path d="M1280 518L1280 352L1163 395Z" fill="#4c4a4e" stroke="#4c4a4e"></path><path d="M1163 395L1280 352L1124 252Z" fill="#221635" stroke="#221635"></path><path d="M0 520L0 609L112 621Z" fill="#1c0f31" stroke="#1c0f31"></path><path d="M1035 750L1132 750L1017 631Z" fill="#46424b" stroke="#46424b"></path><path d="M1280 518L1140 466L1191 586Z" fill="#3a3344" stroke="#3a3344"></path><path d="M1280 518L1163 395L1140 466Z" fill="#17042d" stroke="#17042d"></path><path d="M1189 125L1280 0L1141 0Z" fill="#3a3344" stroke="#3a3344"></path><path d="M108 0L0 0L0 126Z" fill="#1c0f31" stroke="#1c0f31"></path><path d="M1280 352L1280 212L1124 252Z" fill="#342b40" stroke="#342b40"></path><path d="M1280 659L1280 518L1191 586Z" fill="#2e243c" stroke="#2e243c"></path><path d="M1280 212L1280 117L1189 125Z" fill="#342b40" stroke="#342b40"></path><path d="M0 609L0 750L112 621Z" fill="#46424b" stroke="#46424b"></path><path d="M1132 750L1280 659L1191 586Z" fill="#1c0f31" stroke="#1c0f31"></path><path d="M1280 117L1280 0L1189 125Z" fill="#2e243c" stroke="#2e243c"></path><path d="M1132 750L1280 750L1280 659Z" fill="#342b40" stroke="#342b40"></path></g></svg>