<?xml version="1.0" standalone="no"?>
<!DOCTYPE svg PUBLIC "-//W3C//DTD SVG 20010904//EN"
 "http://www.w3.org/TR/2001/REC-SVG-20010904/DTD/svg10.dtd">
<svg version="1.0" xmlns="http://www.w3.org/2000/svg"
 width="512.000000pt" height="512.000000pt" viewBox="0 0 512.000000 512.000000"
 preserveAspectRatio="xMidYMid meet">

<g transform="translate(0.000000,512.000000) scale(0.100000,-0.100000)"
fill="#000000" stroke="none">
<path d="M815 4894 c-684 -243 -668 -235 -680 -316 -3 -24 -5 -564 -3 -1201
l3 -1159 33 -29 32 -29 344 0 345 0 6 -58 c63 -577 388 -1059 888 -1322 251
-132 493 -192 777 -192 432 0 827 157 1144 454 299 279 468 627 522 1071 l5
47 344 0 345 0 31 28 31 28 -1 118 c-4 323 -92 681 -246 991 -354 717 -1027
1210 -1815 1330 -221 34 -550 30 -774 -9 l-75 -13 -258 225 c-278 242 -305
262 -343 261 -14 0 -308 -102 -655 -225z m831 -156 l186 -162 -38 -16 c-22 -9
-70 -27 -107 -40 l-68 -24 -82 81 c-86 85 -112 103 -147 103 -12 0 -167 -52
-344 -116 -478 -173 -474 -171 -491 -204 -12 -24 -15 -91 -15 -394 l0 -365
-55 -92 c-31 -50 -77 -132 -103 -183 l-47 -91 -3 634 c-1 349 0 636 3 639 8 9
1089 390 1107 391 9 1 101 -72 204 -161z m1142 -269 c605 -65 1140 -362 1524
-845 128 -161 272 -419 340 -611 65 -180 128 -483 128 -613 l0 -40 -514 0
-514 0 -7 53 c-79 592 -586 1037 -1185 1037 -599 0 -1106 -445 -1185 -1037
l-7 -53 -515 0 -516 0 7 83 c59 715 471 1367 1095 1735 252 148 580 257 876
290 114 13 359 14 473 1z m-1390 -39 l23 -30 -47 -28 c-195 -113 -412 -281
-557 -430 l-77 -80 2 190 3 190 295 108 c162 59 304 108 316 109 12 1 29 -11
42 -29z m1407 -1208 c150 -42 259 -97 377 -191 213 -168 340 -407 368 -688 13
-132 15 -137 47 -163 24 -19 40 -20 230 -20 l204 0 -6 -52 c-58 -510 -360
-944 -815 -1169 -788 -392 -1744 -1 -2038 832 -31 88 -66 241 -77 337 l-6 52
139 0 138 0 12 -82 c35 -244 152 -476 332 -659 103 -104 202 -176 335 -240
144 -70 211 -65 234 18 19 66 -4 94 -125 152 -115 56 -171 91 -252 160 -126
106 -257 315 -301 481 -104 387 28 796 337 1041 143 115 284 177 482 213 62
11 317 -3 385 -22z"/>
<path d="M2477 4095 c-35 -36 -41 -70 -20 -113 38 -77 146 -76 179 3 28 68
-16 135 -91 135 -32 0 -48 -6 -68 -25z"/>
<path d="M2983 4035 c-33 -23 -46 -81 -27 -120 17 -36 33 -45 149 -85 341
-116 664 -373 863 -686 73 -114 125 -133 189 -69 31 31 35 40 30 71 -3 20 -29
71 -56 115 -222 350 -561 618 -952 754 -110 38 -163 43 -196 20z"/>
<path d="M709 2742 c-55 -49 -36 -138 34 -161 98 -33 171 87 98 160 -40 39
-89 40 -132 1z"/>
<path d="M2433 2755 c-174 -47 -318 -188 -368 -360 -20 -67 -22 -201 -5 -265
43 -164 183 -310 350 -366 75 -25 225 -25 300 0 166 56 307 202 350 364 17 64
14 202 -5 268 -77 264 -362 429 -622 359z m259 -213 c95 -47 160 -133 176
-234 16 -105 -14 -196 -90 -275 -59 -60 -125 -87 -218 -87 -100 0 -163 28
-229 100 -127 139 -106 355 43 462 68 49 111 62 196 59 54 -2 88 -9 122 -25z"/>
<path d="M2508 1245 c-34 -19 -48 -44 -48 -85 0 -42 15 -67 50 -85 43 -22 76
-18 112 14 27 24 33 36 33 70 0 74 -82 122 -147 86z"/>
<path d="M634 2099 c-40 -11 -45 -18 -154 -199 -98 -165 -114 -212 -87 -254 9
-13 69 -54 134 -90 65 -36 124 -70 132 -75 11 -7 6 -32 -24 -137 -66 -229 -61
-239 157 -294 l143 -37 5 -165 c4 -116 9 -170 18 -181 26 -31 80 -39 221 -36
l136 4 37 -145 c32 -125 41 -149 68 -172 17 -16 42 -28 56 -28 20 0 243 59
290 77 7 2 44 -53 84 -127 40 -72 83 -138 95 -146 48 -32 85 -22 221 60 l128
78 107 -110 c157 -163 164 -162 329 11 l95 99 129 -77 c136 -83 173 -93 221
-61 12 8 55 74 95 146 40 74 77 129 84 127 47 -18 270 -77 290 -77 14 0 39 12
56 28 27 23 36 47 68 172 l37 145 136 -4 c141 -3 195 5 221 36 9 11 14 65 18
181 l5 165 143 37 c218 55 223 65 157 294 -30 105 -35 130 -24 137 8 5 67 39
132 75 131 73 152 96 144 152 -6 45 -190 357 -224 379 -12 8 -39 15 -59 16
-29 1 -42 -5 -66 -32 -42 -47 -35 -82 42 -210 34 -58 64 -110 67 -117 2 -7
-44 -38 -113 -75 -117 -64 -154 -98 -154 -144 0 -11 16 -76 36 -144 19 -68 33
-125 30 -128 -2 -3 -49 -16 -103 -29 -215 -53 -213 -51 -213 -254 l0 -142
-124 8 c-137 7 -184 -2 -210 -41 -8 -13 -30 -80 -47 -149 -17 -69 -36 -126
-42 -126 -5 0 -68 16 -138 36 l-129 36 -37 -19 c-30 -15 -48 -39 -102 -135
-36 -65 -70 -118 -75 -118 -4 0 -58 30 -120 67 -158 96 -158 96 -291 -37
l-105 -105 -105 105 c-133 133 -133 133 -291 37 -62 -37 -116 -67 -120 -67 -5
0 -39 53 -75 118 -54 96 -72 120 -102 135 l-37 19 -129 -36 c-70 -20 -133 -36
-138 -36 -6 0 -25 57 -42 126 -17 69 -39 136 -47 149 -26 39 -73 49 -211 41
l-123 -7 0 141 c0 203 2 201 -213 254 -54 13 -101 26 -103 29 -3 3 11 60 30
128 20 68 36 133 36 144 0 46 -37 80 -154 144 -69 37 -115 68 -113 75 3 7 33
59 67 117 76 127 84 164 44 207 -34 36 -58 43 -100 31z"/>
</g>
</svg>
