<?xml version="1.0" standalone="no"?>
<!DOCTYPE svg PUBLIC "-//W3C//DTD SVG 20010904//EN"
 "http://www.w3.org/TR/2001/REC-SVG-20010904/DTD/svg10.dtd">
<svg version="1.0" xmlns="http://www.w3.org/2000/svg"
 width="512.000000pt" height="512.000000pt" viewBox="0 0 512.000000 512.000000"
 preserveAspectRatio="xMidYMid meet">

<g transform="translate(0.000000,512.000000) scale(0.100000,-0.100000)"
fill="#000000" stroke="none">
<path d="M39 4507 c-9 -7 -21 -22 -27 -34 -17 -31 -17 -3795 0 -3826 6 -12 18
-27 27 -34 23 -18 5019 -18 5042 0 9 7 21 22 27 34 17 31 17 3795 0 3826 -6
12 -18 27 -27 34 -23 18 -5019 18 -5042 0z m4911 -1947 l0 -1790 -2390 0
-2390 0 0 1790 0 1790 2390 0 2390 0 0 -1790z"/>
<path d="M320 4263 c-8 -3 -25 -15 -37 -26 l-23 -20 0 -1657 0 -1657 26 -24
26 -24 2248 0 2248 0 26 24 26 24 0 1657 0 1657 -26 24 -26 24 -2236 2 c-1230
1 -2244 -1 -2252 -4z m4370 -1703 l0 -1540 -2130 0 -2130 0 0 1540 0 1540
2130 0 2130 0 0 -1540z"/>
<path d="M3805 3998 c-32 -17 -45 -39 -45 -77 0 -32 16 -51 188 -223 103 -104
198 -192 211 -195 60 -15 120 49 100 106 -5 15 -94 111 -197 214 -195 193
-208 202 -257 175z"/>
<path d="M3459 3825 c-36 -20 -51 -63 -34 -101 7 -16 210 -226 452 -466 413
-413 441 -438 474 -438 54 0 84 39 80 105 -1 22 -849 878 -893 901 -33 17 -46
17 -79 -1z"/>
<path d="M4330 3493 c-35 -13 -60 -47 -60 -82 0 -31 12 -47 108 -143 89 -89
113 -108 138 -108 60 0 103 55 83 108 -12 32 -172 197 -211 218 -29 15 -34 16
-58 7z"/>
</g>
</svg>
