<?xml version="1.0" standalone="no"?>
<!DOCTYPE svg PUBLIC "-//W3C//DTD SVG 20010904//EN"
 "http://www.w3.org/TR/2001/REC-SVG-20010904/DTD/svg10.dtd">
<svg version="1.0" xmlns="http://www.w3.org/2000/svg"
 width="512.000000pt" height="512.000000pt" viewBox="0 0 512.000000 512.000000"
 preserveAspectRatio="xMidYMid meet">

<g transform="translate(0.000000,512.000000) scale(0.100000,-0.100000)"
fill="#000000" stroke="none">
<path d="M2560 4545 c-10 -12 -15 -92 -19 -302 l-6 -285 -669 -389 c-368 -214
-671 -389 -672 -389 -2 0 -4 19 -4 43 0 72 -45 110 -84 71 -12 -11 -16 -37
-16 -97 l-1 -82 -118 -67 c-66 -38 -122 -68 -125 -68 -3 0 -6 112 -6 249 0
214 -2 252 -16 265 -20 20 -48 20 -68 0 -14 -13 -16 -54 -16 -298 l0 -282
-232 -135 c-128 -73 -241 -142 -250 -151 -17 -17 -18 -47 -18 -366 0 -263 3
-352 13 -364 6 -9 66 -48 132 -86 1287 -744 2145 -1237 2165 -1245 23 -9 82
23 555 298 292 170 600 349 685 398 85 49 161 94 168 99 32 27 -7 95 -47 80
-9 -3 -301 -172 -649 -374 -349 -202 -636 -368 -638 -368 -2 0 -4 125 -4 279
l0 278 388 225 c213 124 680 395 1037 603 358 208 669 389 693 402 l42 25 0
-281 0 -280 -105 -62 c-58 -33 -109 -68 -114 -78 -19 -35 19 -78 56 -64 37 14
239 136 251 151 15 20 18 693 3 721 -6 10 -118 80 -250 156 l-241 138 0 306
c0 323 -1 331 -45 331 -40 0 -45 -17 -45 -165 0 -78 -3 -203 -6 -277 l-7 -135
-123 71 -124 71 0 313 0 313 -22 8 c-15 6 -30 5 -43 -4 -19 -12 -20 -26 -25
-293 l-5 -281 -125 72 -125 72 4 291 c2 160 0 300 -3 312 -11 34 -43 47 -72
28 l-24 -16 -2 -279 -3 -278 -122 70 -123 71 0 306 c0 285 -1 308 -18 323 -24
22 -45 21 -65 -1 -15 -16 -17 -52 -17 -294 l0 -276 -125 71 -125 72 0 307 c0
265 -2 309 -16 322 -22 22 -50 20 -68 -6 -14 -19 -16 -64 -16 -290 0 -148 -3
-268 -7 -268 -5 1 -60 31 -123 69 l-115 67 -3 310 c-2 276 -4 310 -19 322 -23
16 -48 15 -63 -3z m-7 -992 c13 -20 65 -16 77 6 5 11 10 70 10 131 0 64 4 110
9 108 5 -1 61 -32 125 -68 l116 -65 0 -151 c0 -162 4 -174 52 -174 40 0 48 25
48 149 0 61 2 111 4 111 3 0 58 -31 123 -69 l118 -69 3 -151 c2 -147 3 -151
27 -167 18 -12 28 -13 44 -4 12 6 22 12 22 13 1 1 5 57 8 124 l6 122 123 -70
122 -71 0 -148 c0 -122 3 -151 16 -164 18 -19 28 -20 55 -6 17 10 19 22 19
135 0 69 3 125 6 125 3 0 61 -32 130 -72 l124 -72 0 -153 c0 -140 2 -153 19
-163 27 -14 37 -13 55 6 13 12 16 40 16 135 0 65 2 119 4 119 2 0 57 -31 122
-69 l119 -69 5 -150 c5 -153 13 -182 49 -182 41 1 46 15 51 144 l5 125 165
-95 c91 -53 168 -99 172 -102 4 -4 -479 -290 -1073 -635 l-1081 -628 -326 189
c-180 104 -622 359 -982 567 -360 208 -704 406 -763 440 l-108 63 93 55 c51
30 129 75 173 100 l80 46 3 -141 c3 -148 8 -168 47 -168 44 0 50 22 55 203 l5
171 115 67 c63 38 118 68 123 69 4 0 7 -154 7 -343 0 -361 1 -367 45 -367 39
0 45 19 45 132 0 59 2 108 5 108 3 0 61 -32 130 -71 l125 -71 0 -137 c0 -144
5 -161 45 -161 39 0 45 19 45 132 0 59 2 108 4 108 3 0 58 -31 123 -69 l118
-69 5 -139 c3 -76 9 -144 13 -150 11 -17 62 -17 75 0 6 7 13 61 14 120 l3 106
123 -70 122 -71 0 -134 c0 -121 2 -136 20 -154 24 -24 30 -24 56 -6 16 12 20
30 24 124 l5 110 123 -71 122 -71 0 -137 c0 -131 1 -139 22 -153 29 -20 34
-20 58 4 18 18 20 34 20 133 l0 112 337 195 c1025 594 1068 619 1078 645 7 20
5 29 -10 44 -11 10 -272 164 -580 341 -308 178 -621 358 -695 402 -74 43 -143
78 -154 78 -10 0 -243 -130 -517 -290 -274 -159 -500 -290 -503 -290 -3 0 -7
50 -8 111 -3 125 -13 144 -62 121 l-26 -12 0 -139 0 -139 -121 -71 c-67 -39
-123 -71 -125 -71 -2 0 -4 89 -4 198 l0 197 673 391 672 390 5 -140 c3 -78 9
-147 13 -153z m-43 -410 l0 -178 -302 -175 c-166 -96 -308 -176 -315 -178 -10
-3 -13 26 -13 137 0 139 0 142 -24 152 -17 8 -29 8 -44 0 -20 -11 -22 -20 -24
-183 l-3 -172 -105 -62 c-90 -53 -108 -60 -127 -51 -23 10 -23 12 -21 166 l3
156 485 282 c267 156 486 283 488 283 1 0 2 -80 2 -177z m710 -178 c333 -191
611 -353 618 -360 10 -9 -19 -30 -138 -99 -134 -77 -153 -85 -173 -75 -54 29
-903 522 -914 531 -10 8 -13 57 -13 185 0 96 3 172 8 170 4 -2 279 -160 612
-352z m-234 -333 c236 -137 438 -253 448 -259 15 -8 -52 -51 -414 -262 -237
-138 -434 -251 -436 -251 -2 0 -4 139 -4 310 l0 310 -24 15 c-22 15 -49 11
-68 -8 -1 -1 -5 -133 -8 -294 l-5 -292 -120 69 -120 69 -5 325 -5 325 165 95
c91 53 166 96 166 96 1 0 194 -112 430 -248z m-1546 -38 l0 -95 -57 32 c-32
18 -71 41 -87 50 l-28 17 23 15 c13 8 47 28 74 45 28 17 56 31 63 31 9 1 12
-24 12 -95z m688 -363 l-3 -128 -122 71 -123 71 0 122 0 122 123 70 122 71 3
-136 c1 -74 1 -193 0 -263z m-689 -350 l1081 -625 0 -279 c0 -249 -2 -278 -16
-273 -13 5 -292 165 -1004 576 -113 66 -419 242 -680 393 l-475 274 -3 283
c-1 158 2 280 6 278 5 -1 496 -284 1091 -627z m347 503 c-3 -26 -6 -55 -6 -65
0 -16 -7 -14 -54 14 l-54 32 51 32 c29 18 56 33 61 33 5 0 6 -21 2 -46z"/>
<path d="M4262 1649 c-109 -63 -122 -73 -122 -98 0 -30 16 -51 39 -51 17 0
225 116 246 137 30 29 9 83 -32 83 -5 0 -63 -32 -131 -71z"/>
</g>
</svg>
